<?xml version="1.0"?>
<svg xmlns="http://www.w3.org/2000/svg" xmlns:xlink="http://www.w3.org/1999/xlink" xmlns:svgjs="http://svgjs.com/svgjs" version="1.1" width="512" height="512" x="0" y="0" viewBox="0 0 254.398 254.399" style="enable-background:new 0 0 512 512" xml:space="preserve" class=""><g>
<g xmlns="http://www.w3.org/2000/svg">
	<g>
		<path d="M251.908,196.566H134.181c6.503-1.79,12.111-5.76,15.813-11.216c0.231,0.073,0.463,0.14,0.706,0.14h100.623    c1.376,0,2.491-1.133,2.491-2.49c0-1.383-1.115-2.496-2.491-2.496h-49.31c4.47-1.693,8.714-4.056,12.544-7.161    c9.401-7.642,15.271-18.475,16.514-30.525c0.049-0.433-0.067-0.853-0.22-1.224c3.337,0.646,7.332,0.871,9.609-5.322    c0.986-2.722-0.159-5.937,6.49-11.617c0,0-5.065-1.955-10.479,0.779c0.847-5.104-2.271-7.795,0.652-12.307    c0,0-10.645,0.17-10.438,10.76c-4.207-4.543-9.779-4.385-9.779-4.385c4.385,7.575,2.229,10.236,2.253,13.123    c0.08,6.807,4.202,7.775,7.637,8.269c-0.354,0.39-0.621,0.864-0.67,1.425c-1.121,10.735-6.346,20.381-14.712,27.17    c-8.354,6.783-18.895,9.926-29.605,8.811c-9.055-0.938-16.775-5.662-21.921-12.391c3.057,1.845,6.491,3.08,10.169,3.465    c1.071,0.127,2.131,0.164,3.197,0.164c6.74,0,13.207-2.211,18.511-6.4c4.652-3.678,7.958-8.524,9.657-13.992    c3.556-0.907,9.444-3.861,3.544-13.146c-1.15-1.82-3.849-5.693-4.037-10.65c0,0-15.296,16.77-4.512,22.926    c-1.443,4.269-4.062,8.062-7.746,10.955c-5.097,4.03-11.551,5.857-18.091,5.199c-5.225-0.548-9.9-3.044-13.158-7.069    c-2.211-2.728-3.525-5.912-3.952-9.262c-0.073-1.546-0.146-3.093,0.013-4.677c0-0.012-0.013-0.023,0-0.036    c0.499-3.604,2.325-6.856,5.248-9.164c3.081-2.448,6.942-3.55,10.937-3.136c3.045,0.316,5.785,1.76,7.709,4.062    s2.801,5.163,2.49,8.086c-0.469,4.549-4.762,7.849-9.438,7.405c-1.394-0.201-2.605,0.857-2.733,2.222    c-0.141,1.364,0.853,2.595,2.223,2.729c7.435,0.828,14.157-4.543,14.924-11.825c0.433-4.287-0.858-8.452-3.641-11.801    c-2.765-3.312-6.687-5.383-11.027-5.834c-2.198-0.237-4.348-0.049-6.418,0.414c0.541-1.547,0.895-3.178,0.895-4.896    c0-6.856-5.584-12.416-12.422-12.416c-5.76,0-10.437,4.688-10.437,10.449c0,1.376,1.12,2.491,2.496,2.491    c1.364,0,2.491-1.121,2.491-2.491c0-3.008,2.453-5.456,5.455-5.456c4.086,0,7.423,3.337,7.423,7.423    c0,5.468-4.445,9.919-9.913,9.919c-7.186,0-13.03-5.839-13.03-13.024c0-7.794,3.653-16.891,13.932-16.891    c1.376,0,2.496-1.121,2.496-2.491s-1.126-2.496-2.496-2.496h-12.958c1.023-0.731,1.997-1.571,2.887-2.521    c3.495-3.75,5.395-8.683,5.346-13.901l-0.061-6.125c0-0.828-0.438-1.608-1.139-2.046c-0.688-0.457-1.571-0.524-2.351-0.201    c-0.14,0.073-15.445,6.588-24.679,0.353c-1.148-0.767-2.694-0.462-3.461,0.67c-0.768,1.127-0.466,2.691,0.673,3.465    c8.549,5.767,20.259,3.209,26,1.358l0.024,2.594c0.037,3.945-1.388,7.666-4.006,10.467c-2.582,2.746-6.025,4.287-9.691,4.317    c-3.641,0.128-7.133-1.431-9.758-4.165c-2.661-2.746-4.146-6.442-4.177-10.388l-0.137-15.997c-0.012-1.449,1.315-2.99,3.647-4.232    c2.875-1.534,6.829-2.405,11.125-2.436c0.073-0.006,0.149-0.006,0.223-0.006c6.917,0,11.338,2.789,11.362,4.664    c-0.146,0.523-1.242,1.395-2.923,2.204c0.828-0.919,0.853-2.351,0-3.3c-1.948-2.229-6.001-2.57-10.321-2.734    c-5.605-0.274-8.549,1.364-9.983,2.752c-1.172,1.145-1.814,2.57-1.802,4.025c0.058,6.168,12.267,6.235,13.719,6.247    c6.664-0.073,16.321-3.653,16.273-9.17c-0.049-5.59-6.967-9.846-16.6-9.682c-5.081,0.042-9.846,1.114-13.417,2.989    c-4.092,2.192-6.33,5.249-6.3,8.689l0.137,15.996c0.046,5.237,2.028,10.133,5.581,13.811c0.844,0.889,1.754,1.644,2.707,2.313    h-13.579c-1.379,0-2.493,1.133-2.493,2.491c0,1.37,1.114,2.484,2.493,2.484c10.282,0,13.929,9.109,13.929,16.904    c0,7.173-5.849,13.019-13.025,13.019c-5.462,0-9.916-4.445-9.916-9.913c0-4.092,3.337-7.429,7.429-7.429    c3.005,0,5.456,2.454,5.456,5.456c0,1.382,1.114,2.485,2.493,2.485c1.376,0,2.494-1.121,2.494-2.485    c0-5.76-4.683-10.449-10.437-10.449c-6.847,0-12.416,5.583-12.416,12.422c0,1.668,0.338,3.245,0.843,4.737    c-1.836-0.329-3.705-0.476-5.614-0.263c-4.345,0.445-8.26,2.516-11.03,5.828c-2.786,3.337-4.077,7.525-3.635,11.807    c0.761,7.307,7.483,12.659,14.921,11.831c1.373-0.128,2.362-1.37,2.226-2.728c-0.137-1.383-1.358-2.454-2.737-2.217    c-4.737,0.433-8.972-2.838-9.444-7.404c-0.307-2.929,0.585-5.803,2.494-8.093c1.933-2.296,4.676-3.763,7.718-4.062    c3.967-0.401,7.858,0.694,10.936,3.137c2.926,2.308,4.747,5.559,5.252,9.164c0,0.012-0.006,0.023,0,0.049    c0.161,1.583,0.079,3.129,0.012,4.676c-0.43,3.35-1.754,6.54-3.952,9.25c-3.264,4.024-7.934,6.521-13.159,7.069    c-6.57,0.657-12.994-1.169-18.1-5.188c-3.666-2.904-6.293-6.697-7.745-10.967c10.793-6.144-4.506-22.925-4.506-22.925    c-0.189,4.956-2.89,8.829-4.043,10.649c-5.891,9.286,0,12.239,3.55,13.135c1.689,5.48,4.999,10.327,9.651,14.005    c5.301,4.177,11.773,6.399,18.514,6.399c1.06,0,2.119-0.055,3.191-0.164c3.687-0.384,7.109-1.62,10.169-3.465    c-5.136,6.729-12.854,11.453-21.921,12.397c-10.701,1.108-21.232-2.027-29.605-8.817c-8.369-6.808-13.594-16.453-14.702-27.17    c-0.058-0.56-0.332-1.028-0.682-1.418c3.437-0.494,7.56-1.462,7.633-8.275c0.03-2.887-2.125-5.547,2.259-13.122    c0,0-5.581-0.152-9.779,4.396c0.195-10.583-10.437-10.766-10.437-10.766c2.923,4.518-0.195,7.197,0.648,12.312    c-5.407-2.733-10.482-0.779-10.482-0.779c6.658,5.676,5.514,8.896,6.497,11.612c2.265,6.175,6.275,5.949,9.608,5.315    c-0.161,0.391-0.268,0.792-0.225,1.23c1.254,12.057,7.115,22.896,16.52,30.525c3.821,3.105,8.068,5.461,12.543,7.148H3.087    c-1.379,0-2.497,1.133-2.497,2.496c0,1.358,1.118,2.479,2.497,2.479h100.617c0.019,0,0.037-0.012,0.064-0.012    c3.69,5.383,9.252,9.31,15.698,11.082H2.493c-1.379,0-2.493,1.12-2.493,2.49c0,1.376,1.114,2.484,2.493,2.484h249.415    c1.376,0,2.49-1.12,2.49-2.484C254.398,197.687,253.284,196.566,251.908,196.566z M154.798,169.676    c0-0.889-0.17-1.698-0.255-2.569c3.934,5.852,9.499,10.553,16.136,13.384h-18.061    C154.019,177.178,154.798,173.525,154.798,169.676z M128.158,66.672c-4.357,0.286-8.205-1.005-8.683-1.285    c0.037-0.426,1.519-1.796,5.742-1.796c0.274,0,0.56,0.006,0.852,0.018c4.859,0.195,6.369,0.688,6.796,1.072    c0.444,0.512,1.071,0.792,1.711,0.828C132.719,66.161,130.484,66.654,128.158,66.672z M83.713,180.503    c6.174-2.631,11.399-6.905,15.266-12.191c-0.024,0.457-0.137,0.914-0.137,1.377c0,3.836,0.779,7.489,2.18,10.814H83.713    L83.713,180.503z M116.4,190.069c-7.426-3.817-12.577-11.472-12.577-20.398c0-8.921,5.151-16.557,12.577-20.393    c-2.908,5.06-4.713,12.245-4.713,20.393C111.687,177.824,113.492,184.997,116.4,190.069z M124.331,191.761    c-3.985-2.557-7.657-10.862-7.657-22.091c0-11.216,3.672-19.522,7.657-22.092V191.761z M124.331,141.934    c-7.426,0.664-13.975,4.202-18.587,9.53c0.155-1.17,0.25-2.339,0.292-3.52c0-0.007,0-0.007,0-0.013    c0.031-0.919,0.024-1.857-0.012-2.789c-0.012-0.603,0.055-1.188-0.006-1.796c-0.25-2.424-0.986-4.713-2.077-6.814    c9.919-0.018,17.987-8.08,17.987-18.018c0-7.154-2.274-13.043-6.195-16.891h1.047c0.067,0.159,0.067,0.366,0.173,0.511l6.08,8.97    c0.362,0.529,0.828,0.889,1.303,1.23L124.331,141.934L124.331,141.934z M137.231,190.069c2.916-5.065,4.719-12.245,4.719-20.398    c0-8.147-1.814-15.32-4.719-20.393c7.435,3.806,12.586,11.472,12.586,20.393C149.817,178.597,144.666,186.263,137.231,190.069z     M129.312,112.341c0.475-0.354,0.949-0.701,1.309-1.23l6.08-8.969c0.109-0.14,0.109-0.347,0.171-0.511h1.047    c-3.921,3.848-6.198,9.742-6.198,16.891c0,9.95,8.086,18.024,18.023,18.024c0.256,0,0.499-0.073,0.755-0.091    c-1.108,2.137-1.851,4.457-2.106,6.887c-0.061,0.603,0,1.188-0.013,1.796c-0.036,0.932-0.036,1.876-0.012,2.789    c0,0.006,0,0.006,0,0.012c0.061,1.577,0.219,3.13,0.463,4.646c-4.64-5.956-11.582-9.938-19.513-10.656L129.312,112.341    L129.312,112.341z M129.312,191.761v-44.183c3.991,2.569,7.656,10.876,7.656,22.092    C136.963,180.892,133.304,189.205,129.312,191.761z" fill="#ffffff" data-original="#000000" style="" class=""/>
	</g>
</g>
<g xmlns="http://www.w3.org/2000/svg">
</g>
<g xmlns="http://www.w3.org/2000/svg">
</g>
<g xmlns="http://www.w3.org/2000/svg">
</g>
<g xmlns="http://www.w3.org/2000/svg">
</g>
<g xmlns="http://www.w3.org/2000/svg">
</g>
<g xmlns="http://www.w3.org/2000/svg">
</g>
<g xmlns="http://www.w3.org/2000/svg">
</g>
<g xmlns="http://www.w3.org/2000/svg">
</g>
<g xmlns="http://www.w3.org/2000/svg">
</g>
<g xmlns="http://www.w3.org/2000/svg">
</g>
<g xmlns="http://www.w3.org/2000/svg">
</g>
<g xmlns="http://www.w3.org/2000/svg">
</g>
<g xmlns="http://www.w3.org/2000/svg">
</g>
<g xmlns="http://www.w3.org/2000/svg">
</g>
<g xmlns="http://www.w3.org/2000/svg">
</g>
</g></svg>
