<?xml version="1.0"?>
<svg xmlns="http://www.w3.org/2000/svg" xmlns:xlink="http://www.w3.org/1999/xlink" xmlns:svgjs="http://svgjs.com/svgjs" version="1.1" width="512" height="512" x="0" y="0" viewBox="0 0 54 60" style="enable-background:new 0 0 512 512" xml:space="preserve" class=""><g><path xmlns="http://www.w3.org/2000/svg" id="Shape" d="m.54 54.868c4.882 3.055 13.385 4.379 19.148 4.841 9.438.758 25.849.118 33.772-4.841.3069331-.1918474.486237-.5345795.4688135-.8961175s-.2288544-.6854395-.5528135-.8468825c-.89-.443-3.464-1.857-4.692-2.559-6.7-3.906-5.3-.051-12.684-7v-5.814c1.912-1.812 3.017-3.384 3.14-6.159 2.0756608-1.0515764 3.4749757-3.0855737 3.715-5.4.2-1 .605-3.7-.3-5.209 3.134-6.581 1.209-15-5.856-15.861-.986-1.365-4.309-5.123-10.989-5.123-7.836 0-14.71 6.5-14.71 13.9.025531 2.1802479.382271 4.3439532 1.058 6.417-1.663 1.176-1.138 4.706-.909 5.875.239023 2.3136562 1.636758 4.3475471 3.711 5.4.122 2.765 1.215 4.337 3.14 6.161v5.817c-1.4213258 1.390449-2.9637625 2.6514387-4.609 3.768-.82902.4916897-1.7324759.8453041-2.675 1.047-2.9.513-4.5 1.754-9.627 4.5-.428.228-.985.4-1.018 1.084-.01845034.3625849.16106476.7066874.469.899zm47.144-2.568c1.031.589 2.077 1.164 3.129 1.733-3.9684017 1.6673351-8.1559063 2.7554666-12.434 3.231 1.7499009-2.0647192 2.9057607-4.5662015 3.344-7.237 1.73.587 2.527.273 5.961 2.273zm-6.8-26.444c-.0081137.0406244-.0137905.0816978-.017.123-.1431169 1.2861762-.7758733 2.4678945-1.767 3.3-.1159006-1.3177302-.0179702-2.6455319.29-3.932.0222542-.0843444.0353301-.1708464.039-.258 0-.911-.026-1.65-.051-2.2.034-.276.229-.892 1.306-.892.037 0 .115.009.173.011.295.392.368 2.131.027 3.846zm-15.174-23.856c6.789 0 9.465 4.416 9.574 4.6.1786283.30939322.5087435.49999092.866.5h.269c.228.014 5.581.4 5.581 7.7-.0106775 1.7993872-.4162214 3.5744952-1.188 5.2-.0646197-.0034873-.1293803-.0034873-.194 0-.4936322.0002639-.9823395.0981413-1.438.288-.888-7.9-3.823-9.759-4.176-9.954-.4683221-.2590791-1.0576063-.1034939-1.337.353-2.635 4.3-8.962 4.92-8.937 4.922h-5.22c-3.088 0-5 1.512-5.118 4.037-.008.149-.013.318-.014.5-.0986137-.0313414-.19874-.0577079-.3-.079-.6858952-1.9850287-1.0498268-4.0670006-1.078-6.167 0-6.228 6.058-11.9 12.71-11.9zm-12.572 23.982c-.0031394-.0432954-.0088158-.0863694-.017-.129-.365-1.817-.26-3.668.049-3.874.579.085 1.228.039 1.3.658.056.5.033.966.266 3.255.200287 1.1151961.2560795 2.2515475.166 3.381-.9887979-.8297727-1.6204317-2.008178-1.764-3.291zm3.708 4.9c.1536525-1.672659.1180942-3.3573141-.106-5.022-.2241493-2.0331101-.3413109-4.076594-.351-6.122.025-.528.1-2.138 3.121-2.138h5.307c.28-.024 6.45-.615 9.853-4.875 2.284 2.9 2.753 8.517 2.76 12.221-.2314804 1.0094133-.3555042 2.0404865-.37 3.076 0 3.15.793 5.339-2.223 8.07-3.474 3.156-3.401 5.908-6.137 5.908-4.743 0-4.7.418-6.6-2.375-.7170416-1.0934472-1.5374774-2.1154757-2.45-3.052-1.842-1.84-2.759-2.773-2.804-5.693zm1.154 15.395v1.723c0 .5522847.4477153 1 1 1s1-.4477153 1-1v-7.894c1.474 2.094 2.413 3.894 5.3 3.894 5.512 0 5.655.441 8.7-3.894v7.894c0 .5522847.4477153 1 1 1s1-.4477153 1-1v-1.723c1.1735529 1.1045834 2.4611083 2.0813958 3.841 2.914-.367 2.283-1.621 7.176-5.709 8.527-4.7435806.3754983-9.5094194.3754983-14.253 0-4.1-1.347-5.353-6.243-5.72-8.528 1.3796244-.8326139 2.6671448-1.8090646 3.841-2.913zm-11.677 6.017c3.416-1.99 4.233-1.683 5.954-2.269.4380456 2.670858 1.5939282 5.1723899 3.344 7.237-4.2780937-.4755334-8.46559832-1.5636649-12.434-3.231 1.052-.569 2.1-1.145 3.136-1.737z" fill="#974cd1" data-original="#000000" style=""/></g></svg>
